<?xml version="1.0" encoding="utf-8"?>
<!-- Generator: Adobe Illustrator 22.1.0, SVG Export Plug-In . SVG Version: 6.00 Build 0)  -->
<svg version="1.1" id="Layer_1" xmlns="http://www.w3.org/2000/svg" xmlns:xlink="http://www.w3.org/1999/xlink" x="0px" y="0px"
	 viewBox="0 0 841.9 595.3" style="enable-background:new 0 0 841.9 595.3;" xml:space="preserve">
<style type="text/css">
	.st0{fill:#FFFFFF;}
</style>
<g>
	<path class="st0" d="M100,456.3c0-105.3,0-210.7,0-316c214.7,0,429.3,0,644,0c0,105.3,0,210.7,0,316
		C529.3,456.3,314.7,456.3,100,456.3z M568.8,232.4c3.9-1.8,8.7-3,12.3-5.8c8.9-7,10-17,8.2-27.2c-2.2-12.7-10.1-20-22.9-21.3
		c-7.1-0.7-14.3-0.4-21.5-0.4c-5.5,0-11-0.1-16.4,0.8c-6.7,1.1-10.6,6.8-9.8,13.3c3.5,0.6,6.5,1,8.4-3.5c0.8-1.9,4.4-2.5,8-4.4
		c0,30.2,0,58.6,0,86.8c3,0,5.3,0,7.8,0c0-2.5,0-4.7,0-6.8c0-24.5,0-49,0-73.5c0-2.4-0.6-5.2,3.5-5.1c6.2,0.2,12.4-0.3,18.5,0.2
		c10.5,0.8,17.3,9.3,17.2,20.9c-0.1,10.7-6.7,18.4-16.9,19.4c-3.6,0.4-7.3,0.1-11,0.6c-1.3,0.2-3.6,1.8-3.5,2.6
		c0.2,1.7,1.3,4.6,2.5,4.8c6.9,1.2,11.2,5.5,15.1,10.7c5.2,6.8,10.4,13.5,15.6,20.2c7.1,9.1,11.2,10.1,21.5,5.2c0.8,1,1.6,1.9,2.4,3
		c8.4,11.5,16.3,23.5,25.4,34.5c15.5,18.9,26.4,39.1,26.6,64.5c0.1,27.7-16.6,50.1-42.7,57.6c-30.8,8.8-65-7.4-78.2-36.6
		c-7.3-16.2-7-32.4,2.6-47.7c12.6-20.1,40.6-26.4,60.7-15.3c20.9,11.6,24.4,36.2,5.8,51.2c-8.1,6.5-13.4,6.4-21-0.4
		c-1.1-0.9-2.6-2-3.8-1.9c-1.9,0.1-4.4,0.7-5.5,2.1c-0.7,0.8,0.1,3.7,1,5.1c5.6,7.9,15.3,11.2,24.7,8.7
		c19.3-5.2,30.8-27.2,24.5-46.9c-5.5-17.3-22.2-30.6-40.8-32.1c-13.3-1-26.3-0.4-38,7.1c-7.4,4.8-12,11.8-16.4,19.1
		c-12.1,20-11.9,40.3-1.3,60.7c5.8,11.1,15.2,18.6,25.5,25.3c19.4,12.6,40.3,17.3,62.8,11.3c35.1-9.3,53.8-36,49.8-73.4
		c-3-28.3-18-50.6-35.1-72c-7.4-9.3-15.6-18.3-21.8-28.3c-10.1-16.4-14.7-34.3-7-53.3c8.6-21.3,24.4-36.3,49.3-37.7
		c21-1.2,38,7.1,50.9,23.4c8.9,11.3,12.1,24.4,8.8,38.5c-5.3,22.9-26.2,32-46.1,30.1c-23.1-2.3-36.3-25-26.5-45.3
		c4.9-10.2,15.6-14.2,26-9.5c5.6,2.5,6.6,5,5.3,11c-0.3,1.3,1.5,4.4,1.9,4.3c3.6-0.6,8.1-0.9,10.3-3.2c1.6-1.7,1.1-6.8-0.2-9.5
		c-6.7-13.2-24.1-18.1-38.1-11.1c-16,8-22.5,31.5-14.4,48.9c8,17.2,32.3,27.5,50.1,25c32-4.5,50.4-35.4,40.8-67.2
		c-7.4-24.6-32.5-42.9-58.9-44.8c-22.7-1.6-41.3,6.4-56.5,23c-12.8,14-18.8,30.2-15.6,49c1.3,7.4,5,14.4,7.3,21.6
		c0.5,1.6,0.2,4.6-0.7,5.1c-1.5,0.9-4,0.6-5.9,0.1c-1.2-0.4-2-2.1-2.9-3.3C582.9,250.8,575.7,241.3,568.8,232.4z M326.8,225
		c0-1.7,0.1-3.3,0-5c-1.1-18.1-9.6-31.9-25.6-40.1c-15.9-8.1-32.3-7.6-47.6,1.9c-14.1,8.8-20.5,22.2-22,38.8
		c-3.1,34.4,26.3,60.8,59.8,53C313,268.7,326.9,249.6,326.8,225z M506.8,225.3c0-1.8,0.1-3.7,0-5.5c-1.2-18.1-9.7-31.9-25.8-40
		c-16.3-8.1-33-7.4-48.4,2.7c-13.6,8.9-19.6,22.2-21.1,38.3c-3.1,34.3,26.6,60.7,60.1,52.8C493,268.6,506.8,249.7,506.8,225.3z
		 M211.4,250.8c-2.5,2.2-4.6,3.9-6.5,5.7c-14.1,13.2-37.4,14.1-52.2,1.7c-13.5-11.5-17.3-26.4-13.9-43.3c5-25.1,31.7-39.9,55.2-30.5
		c3.5,1.4,6.7,4.8,8.7,8.1c2,3.3-0.8,7.8-4.1,7.2c-4.7-0.7-5.4,2.5-7.3,5.1c4.4,2.9,8.7,3.1,13,0.8c4.4-2.4,5.9-6.6,5.8-11.4
		c0-6.6-3.1-11.5-8.7-14.7c-9.9-5.6-20.6-6.6-31.5-4.6c-27.6,5.1-44.7,33-38.4,61.9c5.9,27.1,31.3,42.6,59,35.8
		c10.9-2.7,19.4-8.7,25.6-18.5C214.3,252.8,212.7,251.7,211.4,250.8z M351.6,263.4c0-10.3,0-19.9,0-29.6c0-17.2-0.1-34.3,0.1-51.5
		c0-3.2-0.5-4.8-4.3-4.8c-4.2,0-4,2.3-4,5.1c0,27.8,0,55.7,0,83.5c0,1.5,0.2,2.9,0.3,4.6c17.7,0,35.1,0,52.5,0c0-2.5,0-4.7,0-7.3
		C381.3,263.4,366.9,263.4,351.6,263.4z M426.3,300.4c-1.5-1.9-4.7-2.7-8.6-0.9c-1.6,0.7-3.6,0.7-4.7,0.8c0,6.2,0,12.7,0,20.3
		c1.2-1.3,1.6-1.5,1.6-1.7c0.1-3.6,0.2-7.3,0.2-10.9c0.1-4.6,2.9-8.1,6.5-7.7c4.5,0.5,4.6,4,4.6,7.5c0,3.9,0,7.9,0,11.8
		c0.6,0,1.1,0,1.7,0c0-4.4-0.2-8.8,0.1-13.2c0.2-3.9,3-6,6.7-6c3.7,0,4.4,2.9,4.5,6c0.1,3.3,0,6.7,0.1,10c0.1,3.9,2.3,4.3,4.4,3.8
		c-1.1-2.6-2.2-4.6-2.7-6.6c-0.4-1.7-0.1-3.6-0.1-5.5c0-3.3,0.7-7.4-3.3-8.5C434.6,298.7,431.1,299.9,426.3,300.4z M307.9,319.5
		c0.4,0.1,0.9,0.2,1.3,0.3c0.2-1.4,0.4-2.7,0.4-4.1c0.1-3.2-0.2-6.3,0.1-9.5c0.3-4.3,3.3-5.9,7.2-6c3.9-0.1,5.1,2.6,5.2,5.9
		c0.1,3.5-0.1,7,0.1,10.5c0.3,3.4,1.6,3.9,4,2.8c-0.8-1.8-2-3.5-2.3-5.2c-0.4-2.8,0-5.6-0.1-8.5c-0.2-6.1-4.5-8.9-10.2-6.6
		c-1.2,0.5-2.2,1.1-3.7,1.8c-0.3-4.1-0.5-7.6-0.7-11.2c-0.4,0-0.9,0.1-1.3,0.1C307.9,299.7,307.9,309.6,307.9,319.5z M402.6,290.2
		c-0.5,0-0.9-0.1-1.4-0.1c-0.3,2.7-0.5,5.4-0.8,8.5c-2.4,0-4.6-0.2-6.7,0c-5.6,0.7-8.8,4.9-8.7,11.4c0.1,6,3.1,10.1,8,10.2
		c4.2,0,8.4-2,12.8-0.3c0,0,0.3-0.5,0.4-0.8c-2-1.7-3.4-3.7-3.5-5.7C402.4,305.7,402.6,298,402.6,290.2z M491.4,298.6
		c-2.4,0-4.5-0.2-6.6,0c-5.8,0.6-9,5.1-8.7,11.8c0.3,5.9,3.5,10.1,8.4,9.8c4.1-0.3,8.1-1.9,12.3-0.2c0.1,0,0.3-0.5-0.2,0.3
		c-1.2-2.7-2.6-4.7-2.8-6.7c-0.4-3.4-0.1-7-0.1-10.4c0-4.3,0-8.6,0-13c-0.5,0-0.9,0-1.4,0C492,292.8,491.7,295.4,491.4,298.6z
		 M352.2,319.4c-0.8-1.9-2.2-3.8-2.5-5.9c-0.4-3.1-0.4-6.3,0-9.4c0.5-4.3-1.6-5.6-5.4-5.5c-1.5,0-3-0.1-4.5,0.2
		c-5.2,1-8,5.4-7.7,11.7c0.2,5.5,3,9.5,7.4,9.7C344,320.3,348.5,319.7,352.2,319.4z M471.2,319.3c-0.4,0.1-0.8,0.2-1.2,0.3
		c-0.8-2.1-2.1-4.2-2.3-6.4c-0.4-3.4,0.2-7-0.3-10.4c-0.2-1.4-1.8-3.3-3.2-3.7c-1.9-0.6-4.3-0.5-6.4-0.1c-4.9,0.9-7.7,4.9-7.8,10.6
		c-0.1,5.5,2.4,9.8,6.4,10.6c4.9,1,9.7-2.3,14.6-0.4C471.1,319.7,471.2,319.4,471.2,319.3z M505.9,311.5c2.6-0.1,5.3-0.1,7.8-0.5
		c3.4-0.5,6-2.3,5.9-6.2c-0.1-3.8-2.7-5.5-6.1-6.1c-4.8-0.9-9.3,2.6-10.3,7.9c-1.3,6.7,1.3,12.3,6.3,13.5c3.8,0.9,7.2,0.1,9.5-2.4
		C508.4,319.2,506.2,318.2,505.9,311.5z M379.1,320.2c-0.9-2.6-2-4.7-2.4-6.9c-0.4-2.6,0-5.3-0.1-8c-0.4-5.6-5.2-8.4-10.3-6
		c-1.3,0.6-2.5,1.6-3.7,2.4c-1-0.7-1.9-1.4-2.3-1.7c0,6.5,0,13,0,19.6c0.6,0,1.3,0,1.9,0c0-4.3-0.2-8.7,0.1-13
		c0.2-3.6,4-6.6,7.6-6.3c4,0.4,4.6,3.1,4.5,6.4c-0.1,3.2-0.2,6.3,0.1,9.5C374.8,319.7,376.6,321.1,379.1,320.2z"/>
	<path d="M568.8,232.4c6.9,9,14.1,18.4,21.4,27.9c0.9,1.2,1.7,2.9,2.9,3.3c1.8,0.6,4.3,0.8,5.9-0.1c0.9-0.5,1.2-3.5,0.7-5.1
		c-2.3-7.3-6-14.2-7.3-21.6c-3.2-18.8,2.9-35,15.6-49c15.2-16.6,33.9-24.6,56.5-23c26.4,1.9,51.4,20.3,58.9,44.8
		c9.6,31.9-8.8,62.8-40.8,67.2c-17.9,2.5-42.1-7.8-50.1-25C624.5,234.5,631,211,647,203c13.9-6.9,31.3-2.1,38.1,11.1
		c1.4,2.7,1.8,7.8,0.2,9.5c-2.2,2.3-6.7,2.5-10.3,3.2c-0.4,0.1-2.2-3-1.9-4.3c1.4-6,0.4-8.5-5.3-11c-10.4-4.6-21.1-0.7-26,9.5
		c-9.7,20.3,3.4,43.1,26.5,45.3c19.9,1.9,40.7-7.1,46.1-30.1c3.3-14.2,0.1-27.3-8.8-38.5c-12.9-16.3-30-24.6-50.9-23.4
		c-24.9,1.4-40.7,16.4-49.3,37.7c-7.7,19-3.1,36.9,7,53.3c6.2,10.1,14.4,19,21.8,28.3c17.1,21.4,32.1,43.8,35.1,72
		c4,37.3-14.7,64-49.8,73.4c-22.5,6-43.4,1.2-62.8-11.3c-10.3-6.7-19.8-14.3-25.5-25.3c-10.6-20.4-10.8-40.7,1.3-60.7
		c4.4-7.3,9.1-14.3,16.4-19.1c11.7-7.5,24.7-8.2,38-7.1c18.5,1.5,35.3,14.7,40.8,32.1c6.3,19.7-5.2,41.6-24.5,46.9
		c-9.4,2.5-19-0.7-24.7-8.7c-1-1.4-1.8-4.3-1-5.1c1.1-1.3,3.6-1.9,5.5-2.1c1.2-0.1,2.8,1,3.8,1.9c7.6,6.8,12.9,6.9,21,0.4
		c18.6-15,15.2-39.7-5.8-51.2c-20.1-11.1-48.1-4.8-60.7,15.3c-9.6,15.3-9.9,31.6-2.6,47.7c13.2,29.2,47.4,45.4,78.2,36.6
		c26.1-7.5,42.9-29.9,42.7-57.6c-0.1-25.4-11.1-45.6-26.6-64.5c-9-11-16.9-23-25.4-34.5c-0.8-1-1.6-2-2.4-3
		c-10.3,5-14.5,3.9-21.5-5.2c-5.2-6.7-10.4-13.4-15.6-20.2c-3.9-5.1-8.2-9.5-15.1-10.7c-1.1-0.2-2.3-3-2.5-4.8
		c-0.1-0.8,2.2-2.4,3.5-2.6c3.6-0.5,7.3-0.3,11-0.6c10.3-1,16.9-8.6,16.9-19.4c0.1-11.6-6.7-20.1-17.2-20.9
		c-6.1-0.4-12.3,0-18.5-0.2c-4.1-0.1-3.4,2.7-3.5,5.1c0,24.5,0,49,0,73.5c0,2.2,0,4.3,0,6.8c-2.5,0-4.8,0-7.8,0
		c0-28.2,0-56.6,0-86.8c-3.7,1.9-7.2,2.6-8,4.4c-1.9,4.5-4.9,4-8.4,3.5c-0.7-6.5,3.1-12.2,9.8-13.3c5.4-0.9,10.9-0.7,16.4-0.8
		c7.2-0.1,14.4-0.3,21.5,0.4c12.9,1.3,20.7,8.6,22.9,21.3c1.8,10.3,0.7,20.3-8.2,27.2C577.5,229.4,572.6,230.6,568.8,232.4z"/>
	<path d="M326.8,225c0.1,24.6-13.8,43.7-35.4,48.7c-33.5,7.7-63-18.6-59.8-53c1.5-16.5,7.9-30,22-38.8c15.3-9.5,31.7-10,47.6-1.9
		c16,8.2,24.5,22,25.6,40.1C326.9,221.7,326.8,223.4,326.8,225z M319.4,225.7c0.2-17.5-6.2-30.6-20.8-38.7
		c-24.9-13.8-55.1,1.6-59,29.8c-4.1,29.5,13.6,51.2,41.6,50.8C301.7,267.2,320.5,249.3,319.4,225.7z"/>
	<path d="M506.8,225.3c0.1,24.3-13.8,43.2-35.2,48.3c-33.4,7.9-63.2-18.5-60.1-52.8c1.5-16.1,7.5-29.4,21.1-38.3
		c15.4-10.1,32.2-10.8,48.4-2.7c16.1,8,24.6,21.9,25.8,40C506.9,221.7,506.8,223.5,506.8,225.3z M499.4,224.8c0-17.4-7.5-31-21-38.1
		c-26.3-13.9-55.6,2.6-59.2,33.4c-3.5,30,21.2,52.9,49.9,46.4C487.3,262.4,499.4,245.8,499.4,224.8z"/>
	<path d="M211.4,250.8c1.2,0.9,2.8,2,4.9,3.5c-6.1,9.8-14.7,15.9-25.6,18.5c-27.7,6.8-53.1-8.8-59-35.8
		c-6.3-28.9,10.8-56.8,38.4-61.9c10.9-2,21.6-1,31.5,4.6c5.7,3.2,8.7,8.1,8.7,14.7c0,4.8-1.4,9-5.8,11.4c-4.3,2.3-8.6,2.1-13-0.8
		c1.9-2.6,2.6-5.9,7.3-5.1c3.3,0.5,6-4,4.1-7.2c-2-3.3-5.2-6.7-8.7-8.1c-23.5-9.5-50.2,5.3-55.2,30.5c-3.4,16.9,0.4,31.8,13.9,43.3
		c14.8,12.5,38.1,11.6,52.2-1.7C206.9,254.7,209,253,211.4,250.8z"/>
	<path d="M351.6,263.4c15.2,0,29.7,0,44.6,0c0,2.5,0,4.8,0,7.3c-17.5,0-34.8,0-52.5,0c-0.1-1.7-0.3-3.1-0.3-4.6
		c0-27.8,0-55.7,0-83.5c0-2.9-0.2-5.1,4-5.1c3.8,0,4.3,1.6,4.3,4.8c-0.1,17.2-0.1,34.3-0.1,51.5
		C351.6,243.5,351.6,253.1,351.6,263.4z"/>
	<path d="M426.3,300.4c4.8-0.5,8.2-1.7,11.1-0.9c3.9,1.1,3.3,5.2,3.3,8.5c0,1.8-0.3,3.7,0.1,5.5c0.5,2.1,1.6,4,2.7,6.6
		c-2.2,0.5-4.3,0.1-4.4-3.8c-0.1-3.3,0-6.6-0.1-10c-0.1-3.1-0.8-6-4.5-6c-3.7,0-6.5,2-6.7,6c-0.3,4.4-0.1,8.8-0.1,13.2
		c-0.6,0-1.1,0-1.7,0c0-3.9,0-7.9,0-11.8c0-3.5-0.1-7-4.6-7.5c-3.6-0.4-6.4,3.1-6.5,7.7c-0.1,3.7-0.1,7.3-0.2,10.9
		c0,0.2-0.4,0.4-1.6,1.7c0-7.6,0-14.2,0-20.3c1.1-0.2,3-0.1,4.7-0.8C421.7,297.7,424.8,298.5,426.3,300.4z"/>
	<path d="M307.9,319.5c0-9.9,0-19.9,0-29.8c0.4,0,0.9-0.1,1.3-0.1c0.2,3.6,0.5,7.2,0.7,11.2c1.4-0.7,2.5-1.3,3.7-1.8
		c5.7-2.3,10,0.5,10.2,6.6c0.1,2.8-0.3,5.7,0.1,8.5c0.2,1.8,1.4,3.4,2.3,5.2c-2.4,1.1-3.7,0.7-4-2.8c-0.3-3.5-0.1-7-0.1-10.5
		c-0.1-3.4-1.3-6-5.2-5.9c-3.8,0.1-6.8,1.7-7.2,6c-0.3,3.1,0,6.3-0.1,9.5c0,1.4-0.3,2.7-0.4,4.1
		C308.7,319.8,308.3,319.7,307.9,319.5z"/>
	<path d="M402.6,290.2c0,7.7-0.2,15.5,0.1,23.2c0.1,2,1.5,4,3.5,5.7c-0.1,0.3-0.4,0.8-0.4,0.8c-4.3-1.7-8.5,0.4-12.8,0.3
		c-4.8,0-7.9-4.2-8-10.2c-0.1-6.5,3-10.7,8.7-11.4c2.1-0.2,4.2,0,6.7,0c0.3-3.1,0.6-5.8,0.8-8.5
		C401.7,290.1,402.1,290.2,402.6,290.2z M400.9,307.6c-0.4-3,1.6-7.6-4.7-7.5c-5.8,0.1-9.3,3.5-9.2,9.4c0,5.5,2.9,9.1,7.2,9
		C399,318.5,400.8,315.5,400.9,307.6z"/>
	<path d="M491.4,298.6c0.3-3.2,0.5-5.8,0.8-8.5c0.5,0,0.9,0,1.4,0c0,4.3,0,8.6,0,13c0,3.5-0.3,7,0.1,10.4c0.2,2.1,1.6,4,2.8,6.7
		c0.5-0.8,0.3-0.3,0.2-0.3c-4.2-1.6-8.2-0.1-12.3,0.2c-4.9,0.4-8.1-3.9-8.4-9.8c-0.3-6.7,2.9-11.2,8.7-11.8
		C486.9,298.4,489.1,298.6,491.4,298.6z M491.9,307.6c-0.3-3.1,1.6-7.6-4.7-7.5c-5.8,0.1-9.2,3.5-9.2,9.4c0.1,5.5,3,9.1,7.3,9
		C490,318.5,491.8,315.5,491.9,307.6z"/>
	<path d="M352.2,319.4c-3.6,0.2-8.2,0.9-12.7,0.7c-4.4-0.2-7.1-4.2-7.4-9.7c-0.3-6.3,2.5-10.6,7.7-11.7c1.4-0.3,3-0.1,4.5-0.2
		c3.8-0.1,5.9,1.2,5.4,5.5c-0.3,3.1-0.4,6.3,0,9.4C350,315.6,351.3,317.5,352.2,319.4z M347.8,309.5c-0.1-5.1,1.2-9.5-5.1-9.3
		c-5.4,0.2-8.8,3.5-8.8,9.3c0,5.5,2.8,9.1,7.1,9.1C345.9,318.6,347.8,315.6,347.8,309.5z"/>
	<path d="M471.2,319.3c-0.1,0.1-0.2,0.4-0.2,0.4c-4.9-1.9-9.8,1.4-14.6,0.4c-4-0.8-6.4-5.1-6.4-10.6c0.1-5.8,2.8-9.7,7.8-10.6
		c2.1-0.4,4.4-0.5,6.4,0.1c1.4,0.5,3,2.3,3.2,3.7c0.5,3.4-0.1,7,0.3,10.4c0.3,2.2,1.5,4.3,2.3,6.4
		C470.4,319.4,470.8,319.4,471.2,319.3z M465.9,306.8c0.3-3.1,0.6-6.9-5.4-6.6c-5.2,0.3-8.4,3.5-8.5,9.1c-0.1,5.5,2.7,9.2,6.9,9.3
		C463.8,318.7,465.8,315.6,465.9,306.8z"/>
	<path d="M505.9,311.5c0.3,6.8,2.5,7.8,13.2,6.2c-2.3,2.5-5.7,3.3-9.5,2.4c-5-1.2-7.6-6.8-6.3-13.5c1-5.3,5.5-8.8,10.3-7.9
		c3.4,0.6,6,2.3,6.1,6.1c0.1,3.9-2.5,5.6-5.9,6.2C511.2,311.4,508.5,311.3,505.9,311.5z M505.4,309.2c2.9,0,6,0.5,8.7-0.2
		c1.5-0.4,3.5-3,3.4-4.4c-0.1-1.5-2.3-3.6-3.9-4.1C509.1,299.2,505.7,302.9,505.4,309.2z"/>
	<path d="M379.1,320.2c-2.4,0.9-4.3-0.5-4.6-4c-0.3-3.1-0.2-6.3-0.1-9.5c0.1-3.3-0.6-6-4.5-6.4c-3.6-0.3-7.5,2.7-7.6,6.3
		c-0.2,4.3-0.1,8.7-0.1,13c-0.6,0-1.3,0-1.9,0c0-6.6,0-13.1,0-19.6c0.3,0.3,1.3,1,2.3,1.7c1.2-0.8,2.4-1.8,3.7-2.4
		c5.1-2.4,9.9,0.4,10.3,6c0.2,2.6-0.2,5.4,0.1,8C377,315.5,378.1,317.6,379.1,320.2z"/>
	<path class="st0" d="M319.4,225.7c1.1,23.6-17.7,41.5-38.2,41.8c-28,0.5-45.8-21.2-41.6-50.8c3.9-28.2,34.1-43.6,59-29.8
		C313.3,195.1,319.6,208.2,319.4,225.7z"/>
	<path class="st0" d="M499.4,224.8c0,21-12,37.5-30.3,41.7c-28.8,6.5-53.4-16.4-49.9-46.4c3.5-30.8,32.8-47.3,59.2-33.4
		C491.9,193.8,499.4,207.4,499.4,224.8z"/>
	<path class="st0" d="M400.9,307.6c0,7.8-1.9,10.8-6.7,10.9c-4.3,0.1-7.2-3.5-7.2-9c0-5.9,3.4-9.3,9.2-9.4
		C402.5,300.1,400.5,304.6,400.9,307.6z"/>
	<path class="st0" d="M491.9,307.6c0,7.8-1.8,10.8-6.6,10.9c-4.3,0.1-7.2-3.5-7.3-9c-0.1-5.9,3.4-9.3,9.2-9.4
		C493.4,300,491.5,304.5,491.9,307.6z"/>
	<path class="st0" d="M347.8,309.5c0,6.1-2,9.1-6.8,9.1c-4.3,0-7.1-3.6-7.1-9.1c0-5.8,3.4-9.1,8.8-9.3
		C349.1,300,347.8,304.4,347.8,309.5z"/>
	<path class="st0" d="M465.9,306.8c0,8.8-2,11.9-7,11.8c-4.2-0.1-7-3.9-6.9-9.3c0.1-5.5,3.3-8.8,8.5-9.1
		C466.5,299.9,466.2,303.7,465.9,306.8z"/>
	<path class="st0" d="M505.4,309.2c0.4-6.3,3.7-10,8.1-8.7c1.7,0.5,3.8,2.6,3.9,4.1c0.1,1.5-1.9,4-3.4,4.4
		C511.3,309.7,508.3,309.2,505.4,309.2z"/>
</g>
</svg>
